<svg width="50" height="50" viewBox="0 0 50 50" fill="none" xmlns="http://www.w3.org/2000/svg">
<path d="M21.4998 36.5L39.1248 18.875L35.6248 15.375L21.4998 29.5L14.3748 22.375L10.8748 25.875L21.4998 36.5ZM24.9998 50C21.5414 50 18.2914 49.3438 15.2498 48.0312C12.2081 46.7188 9.56226 44.9375 7.31226 42.6875C5.06226 40.4375 3.28101 37.7917 1.96851 34.75C0.656006 31.7083 -0.000244141 28.4583 -0.000244141 25C-0.000244141 21.5417 0.656006 18.2917 1.96851 15.25C3.28101 12.2083 5.06226 9.5625 7.31226 7.3125C9.56226 5.0625 12.2081 3.28125 15.2498 1.96875C18.2914 0.65625 21.5414 0 24.9998 0C28.4581 0 31.7081 0.65625 34.7498 1.96875C37.7914 3.28125 40.4373 5.0625 42.6873 7.3125C44.9373 9.5625 46.7185 12.2083 48.031 15.25C49.3435 18.2917 49.9998 21.5417 49.9998 25C49.9998 28.4583 49.3435 31.7083 48.031 34.75C46.7185 37.7917 44.9373 40.4375 42.6873 42.6875C40.4373 44.9375 37.7914 46.7188 34.7498 48.0312C31.7081 49.3438 28.4581 50 24.9998 50ZM24.9998 45C30.5831 45 35.3123 43.0625 39.1873 39.1875C43.0623 35.3125 44.9998 30.5833 44.9998 25C44.9998 19.4167 43.0623 14.6875 39.1873 10.8125C35.3123 6.9375 30.5831 5 24.9998 5C19.4164 5 14.6873 6.9375 10.8123 10.8125C6.93726 14.6875 4.99976 19.4167 4.99976 25C4.99976 30.5833 6.93726 35.3125 10.8123 39.1875C14.6873 43.0625 19.4164 45 24.9998 45Z" fill="#1458D3"/>
</svg>
