<svg width="25" height="25" viewBox="0 0 25 25" fill="none" xmlns="http://www.w3.org/2000/svg">
<path d="M6 22H20C21.1 22 22 21 22 19.7778V7.55557C22 7.25557 21.89 6.97779 21.71 6.76668L17.71 2.32224C17.6166 2.21926 17.5057 2.13779 17.3839 2.08249C17.2621 2.0272 17.1316 1.99917 17 2.00002H6C4.9 2.00002 4 3.00002 4 4.22224V19.7778C4 21 4.9 22 6 22ZM8 4.22224H12V6.44446H14V4.22224H16V8.66668H8V4.22224ZM8 13.1111C8 12.5 8.45 12 9 12H17C17.55 12 18 12.5 18 13.1111V19.7778H8V13.1111Z" fill="#1458D4"/>
</svg>
