<svg width="25" height="25" viewBox="0 0 25 25" fill="none" xmlns="http://www.w3.org/2000/svg">
<mask id="path-1-outside-1_22842_16" maskUnits="userSpaceOnUse" x="2.125" y="1.08398" width="21" height="23" fill="black">
<rect fill="white" x="2.125" y="1.08398" width="21" height="23"/>
<path d="M4.82429 22.0716C4.33988 22.0716 3.93574 21.8792 3.61186 21.4945C3.28799 21.1097 3.1257 20.6292 3.125 20.0528V4.10273C3.125 3.52726 3.28729 3.04714 3.61186 2.66238C3.93644 2.27761 4.34058 2.08482 4.82429 2.08398H18.2514C18.7351 2.08398 19.1392 2.27678 19.4638 2.66238C19.7884 3.04797 19.9503 3.52809 19.9496 4.10273V13.4232C19.9496 13.6014 19.8995 13.7501 19.7993 13.8692C19.699 13.9883 19.5739 14.0478 19.4239 14.0478C19.2738 14.0478 19.1487 13.9883 19.0485 13.8692C18.9482 13.7501 18.8981 13.6014 18.8981 13.4232V4.10273C18.8981 3.91035 18.8308 3.73379 18.6962 3.57306C18.5616 3.41233 18.413 3.33238 18.2503 3.33321H4.82429C4.66235 3.33321 4.51373 3.41316 4.37843 3.57306C4.24314 3.73296 4.17584 3.90952 4.17654 4.10273V20.0541C4.17654 20.2456 4.24384 20.4218 4.37843 20.5825C4.51303 20.7432 4.6613 20.8232 4.82324 20.8224H10.9716C11.1209 20.8224 11.2457 20.8819 11.3459 21.001C11.4462 21.1201 11.4967 21.2688 11.4974 21.447C11.4981 21.6252 11.4476 21.7739 11.3459 21.893C11.2443 22.012 11.1195 22.0716 10.9716 22.0716H4.82429ZM17.0621 21.5694L20.9507 16.9423C21.053 16.8207 21.1747 16.7557 21.3156 16.7474C21.4565 16.7391 21.5851 16.804 21.7015 16.9423C21.8179 17.0805 21.8757 17.2292 21.875 17.3882C21.8743 17.5473 21.8165 17.696 21.7015 17.8342L17.6562 22.6138C17.4866 22.8161 17.2875 22.9173 17.0589 22.9173C16.8304 22.9173 16.6313 22.8165 16.4617 22.615L14.551 20.3689C14.4389 20.2465 14.3828 20.1016 14.3828 19.9342C14.3828 19.7668 14.4406 19.6144 14.5563 19.477C14.6727 19.3395 14.7967 19.2708 14.9285 19.2708C15.0603 19.2708 15.1844 19.3395 15.3008 19.477L17.0621 21.5694ZM8.02938 12.7636C8.1836 12.5804 8.26072 12.3518 8.26072 12.0778C8.26072 11.8038 8.1836 11.5752 8.02938 11.392C7.87515 11.2087 7.68307 11.1171 7.45314 11.1171C7.2218 11.1171 7.02901 11.2087 6.87479 11.392C6.72056 11.5752 6.64345 11.8038 6.64345 12.0778C6.64345 12.3518 6.72056 12.5804 6.87479 12.7636C7.02901 12.9468 7.2218 13.0384 7.45314 13.0384C7.68447 13.0384 7.87691 12.9468 8.03043 12.7636M8.03043 8.05403C8.18466 7.87081 8.26177 7.64262 8.26177 7.36946C8.26177 7.09629 8.18466 6.86727 8.03043 6.68238C7.8762 6.4975 7.68342 6.40589 7.45208 6.40755C7.22074 6.40922 7.02831 6.50083 6.87479 6.68238C6.72126 6.86394 6.64415 7.09296 6.64345 7.36946C6.64275 7.64595 6.71986 7.87456 6.87479 8.05528C7.02972 8.236 7.2225 8.32761 7.45314 8.33011C7.68307 8.33011 7.8755 8.23725 8.03043 8.05403ZM15.8244 12.7024C15.9745 12.7024 16.0996 12.6429 16.1998 12.5238C16.3001 12.4047 16.3502 12.256 16.3502 12.0778C16.3502 11.8996 16.3001 11.7509 16.1998 11.6318C16.0996 11.5127 15.9745 11.4532 15.8244 11.4532H11.2134C11.0641 11.4532 10.9393 11.5127 10.8391 11.6318C10.7388 11.7509 10.6884 11.8996 10.6877 12.0778C10.687 12.256 10.7374 12.4047 10.8391 12.5238C10.9407 12.6429 11.0655 12.7024 11.2134 12.7024H15.8244ZM15.8244 7.99282C15.9745 7.99282 16.0996 7.93369 16.1998 7.81543C16.3001 7.69717 16.3502 7.54851 16.3502 7.36946C16.3502 7.1904 16.3001 7.04174 16.1998 6.92348C16.0996 6.80522 15.9745 6.74568 15.8244 6.74484H11.2134C11.0641 6.74484 10.9393 6.80439 10.8391 6.92348C10.7388 7.04258 10.6884 7.19123 10.6877 7.36946C10.687 7.54768 10.7374 7.69634 10.8391 7.81543C10.9407 7.93452 11.0655 7.99407 11.2134 7.99407L15.8244 7.99282Z"/>
</mask>
<path d="M4.82429 22.0716C4.33988 22.0716 3.93574 21.8792 3.61186 21.4945C3.28799 21.1097 3.1257 20.6292 3.125 20.0528V4.10273C3.125 3.52726 3.28729 3.04714 3.61186 2.66238C3.93644 2.27761 4.34058 2.08482 4.82429 2.08398H18.2514C18.7351 2.08398 19.1392 2.27678 19.4638 2.66238C19.7884 3.04797 19.9503 3.52809 19.9496 4.10273V13.4232C19.9496 13.6014 19.8995 13.7501 19.7993 13.8692C19.699 13.9883 19.5739 14.0478 19.4239 14.0478C19.2738 14.0478 19.1487 13.9883 19.0485 13.8692C18.9482 13.7501 18.8981 13.6014 18.8981 13.4232V4.10273C18.8981 3.91035 18.8308 3.73379 18.6962 3.57306C18.5616 3.41233 18.413 3.33238 18.2503 3.33321H4.82429C4.66235 3.33321 4.51373 3.41316 4.37843 3.57306C4.24314 3.73296 4.17584 3.90952 4.17654 4.10273V20.0541C4.17654 20.2456 4.24384 20.4218 4.37843 20.5825C4.51303 20.7432 4.6613 20.8232 4.82324 20.8224H10.9716C11.1209 20.8224 11.2457 20.8819 11.3459 21.001C11.4462 21.1201 11.4967 21.2688 11.4974 21.447C11.4981 21.6252 11.4476 21.7739 11.3459 21.893C11.2443 22.012 11.1195 22.0716 10.9716 22.0716H4.82429ZM17.0621 21.5694L20.9507 16.9423C21.053 16.8207 21.1747 16.7557 21.3156 16.7474C21.4565 16.7391 21.5851 16.804 21.7015 16.9423C21.8179 17.0805 21.8757 17.2292 21.875 17.3882C21.8743 17.5473 21.8165 17.696 21.7015 17.8342L17.6562 22.6138C17.4866 22.8161 17.2875 22.9173 17.0589 22.9173C16.8304 22.9173 16.6313 22.8165 16.4617 22.615L14.551 20.3689C14.4389 20.2465 14.3828 20.1016 14.3828 19.9342C14.3828 19.7668 14.4406 19.6144 14.5563 19.477C14.6727 19.3395 14.7967 19.2708 14.9285 19.2708C15.0603 19.2708 15.1844 19.3395 15.3008 19.477L17.0621 21.5694ZM8.02938 12.7636C8.1836 12.5804 8.26072 12.3518 8.26072 12.0778C8.26072 11.8038 8.1836 11.5752 8.02938 11.392C7.87515 11.2087 7.68307 11.1171 7.45314 11.1171C7.2218 11.1171 7.02901 11.2087 6.87479 11.392C6.72056 11.5752 6.64345 11.8038 6.64345 12.0778C6.64345 12.3518 6.72056 12.5804 6.87479 12.7636C7.02901 12.9468 7.2218 13.0384 7.45314 13.0384C7.68447 13.0384 7.87691 12.9468 8.03043 12.7636M8.03043 8.05403C8.18466 7.87081 8.26177 7.64262 8.26177 7.36946C8.26177 7.09629 8.18466 6.86727 8.03043 6.68238C7.8762 6.4975 7.68342 6.40589 7.45208 6.40755C7.22074 6.40922 7.02831 6.50083 6.87479 6.68238C6.72126 6.86394 6.64415 7.09296 6.64345 7.36946C6.64275 7.64595 6.71986 7.87456 6.87479 8.05528C7.02972 8.236 7.2225 8.32761 7.45314 8.33011C7.68307 8.33011 7.8755 8.23725 8.03043 8.05403ZM15.8244 12.7024C15.9745 12.7024 16.0996 12.6429 16.1998 12.5238C16.3001 12.4047 16.3502 12.256 16.3502 12.0778C16.3502 11.8996 16.3001 11.7509 16.1998 11.6318C16.0996 11.5127 15.9745 11.4532 15.8244 11.4532H11.2134C11.0641 11.4532 10.9393 11.5127 10.8391 11.6318C10.7388 11.7509 10.6884 11.8996 10.6877 12.0778C10.687 12.256 10.7374 12.4047 10.8391 12.5238C10.9407 12.6429 11.0655 12.7024 11.2134 12.7024H15.8244ZM15.8244 7.99282C15.9745 7.99282 16.0996 7.93369 16.1998 7.81543C16.3001 7.69717 16.3502 7.54851 16.3502 7.36946C16.3502 7.1904 16.3001 7.04174 16.1998 6.92348C16.0996 6.80522 15.9745 6.74568 15.8244 6.74484H11.2134C11.0641 6.74484 10.9393 6.80439 10.8391 6.92348C10.7388 7.04258 10.6884 7.19123 10.6877 7.36946C10.687 7.54768 10.7374 7.69634 10.8391 7.81543C10.9407 7.93452 11.0655 7.99407 11.2134 7.99407L15.8244 7.99282Z" fill="#1458D4"/>
<path d="M4.17654 20.8224H4.42654V3.33321H4.17654H3.92654V20.8224H4.17654ZM3.125 20.0528H2.625L2.625 20.0535L3.125 20.0528ZM4.82429 2.08398V1.58398L4.82343 1.58399L4.82429 2.08398ZM19.9496 4.10273L19.4496 4.10212V4.10273H19.9496ZM19.0485 13.8692L19.431 13.5472L19.0485 13.8692ZM18.2503 3.33321V3.83322L18.2529 3.8332L18.2503 3.33321ZM4.17654 4.10273H4.67654L4.67654 4.10092L4.17654 4.10273ZM4.82324 20.8224V20.3224L4.82066 20.3224L4.82324 20.8224ZM17.0621 21.5694L16.6796 21.8914L17.0624 22.3462L17.4449 21.8911L17.0621 21.5694ZM20.9507 16.9423L20.5682 16.6203L20.5679 16.6206L20.9507 16.9423ZM21.7015 17.8342L22.0832 18.1573L22.0859 18.1539L21.7015 17.8342ZM17.6562 22.6138L17.2746 22.2907L17.273 22.2925L17.6562 22.6138ZM16.4617 22.615L16.8442 22.293L16.8425 22.291L16.4617 22.615ZM14.551 20.3689L14.9319 20.0449L14.9259 20.0379L14.9197 20.0311L14.551 20.3689ZM14.5563 19.477L14.1747 19.1538L14.1738 19.155L14.5563 19.477ZM15.3008 19.477L15.6833 19.155L15.6823 19.1538L15.3008 19.477ZM8.03043 8.05403L8.41223 8.37688L8.41295 8.37602L8.03043 8.05403ZM7.45314 8.33011L7.44772 8.83011H7.45314V8.33011ZM15.8244 7.99282V7.49282H15.8243L15.8244 7.99282ZM15.8244 6.74484L15.8272 6.24484H15.8244V6.74484ZM11.2134 7.99407V8.49407H11.2136L11.2134 7.99407ZM4.82429 22.0716V21.5716C4.49376 21.5716 4.22743 21.4493 3.99438 21.1725L3.61186 21.4944L3.22934 21.8164C3.64405 22.3091 4.186 22.5716 4.82429 22.5716V22.0716ZM3.61186 21.4944L3.99438 21.1725C3.75717 20.8907 3.62558 20.5291 3.625 20.0522L3.125 20.0528L2.625 20.0535C2.62582 20.7292 2.8188 21.3287 3.22934 21.8164L3.61186 21.4944ZM3.125 20.0528H3.625V4.10273H3.125H2.625V20.0528H3.125ZM3.125 4.10273H3.625C3.625 3.62735 3.75635 3.26653 3.99404 2.98477L3.61186 2.66238L3.22968 2.33998C2.81822 2.82774 2.625 3.42716 2.625 4.10273H3.125ZM3.61186 2.66238L3.99404 2.98477C4.22823 2.70716 4.4952 2.58455 4.82515 2.58398L4.82429 2.08398L4.82343 1.58399C4.18596 1.58508 3.64465 1.84807 3.22968 2.33998L3.61186 2.66238ZM4.82429 2.08398V2.58398H18.2514V2.08398V1.58398H4.82429V2.08398ZM18.2514 2.08398V2.58398C18.5806 2.58398 18.8471 2.7062 19.0813 2.98436L19.4638 2.66238L19.8463 2.34039C19.4313 1.84737 18.8896 1.58398 18.2514 1.58398V2.08398ZM19.4638 2.66238L19.0813 2.98436C19.3193 3.26709 19.4502 3.62797 19.4496 4.10212L19.9496 4.10273L20.4496 4.10334C20.4505 3.42821 20.2575 2.82885 19.8463 2.34039L19.4638 2.66238ZM19.9496 4.10273H19.4496V13.4232H19.9496H20.4496V4.10273H19.9496ZM19.9496 13.4232H19.4496C19.4496 13.5017 19.4302 13.5312 19.4167 13.5472L19.7993 13.8692L20.1818 14.1912C20.3688 13.969 20.4496 13.7012 20.4496 13.4232H19.9496ZM19.7993 13.8692L19.4167 13.5472C19.4115 13.5534 19.4087 13.5556 19.4088 13.5555C19.4091 13.5553 19.4113 13.5536 19.4154 13.5517C19.4194 13.5497 19.4233 13.5485 19.4259 13.548C19.4285 13.5474 19.4281 13.5478 19.4239 13.5478V14.0478V14.5478C19.7277 14.5478 19.9906 14.4182 20.1818 14.1912L19.7993 13.8692ZM19.4239 14.0478V13.5478C19.4196 13.5478 19.4192 13.5474 19.4218 13.548C19.4244 13.5485 19.4283 13.5497 19.4323 13.5517C19.4364 13.5536 19.4386 13.5553 19.4389 13.5555C19.439 13.5556 19.4362 13.5534 19.431 13.5472L19.0485 13.8692L18.6659 14.1912C18.8571 14.4182 19.1201 14.5478 19.4239 14.5478V14.0478ZM19.0485 13.8692L19.431 13.5472C19.4175 13.5312 19.3981 13.5017 19.3981 13.4232H18.8981H18.3981C18.3981 13.7012 18.4789 13.969 18.6659 14.1912L19.0485 13.8692ZM18.8981 13.4232H19.3981V4.10273H18.8981H18.3981V13.4232H18.8981ZM18.8981 4.10273H19.3981C19.3981 3.78214 19.2822 3.49411 19.0795 3.25205L18.6962 3.57306L18.3128 3.89407C18.3793 3.97348 18.3981 4.03856 18.3981 4.10273H18.8981ZM18.6962 3.57306L19.0795 3.25205C18.8792 3.01275 18.6002 2.83141 18.2478 2.83322L18.2503 3.33321L18.2529 3.8332C18.2517 3.83321 18.2492 3.83301 18.2465 3.83232C18.2439 3.83166 18.2439 3.83124 18.2469 3.83288C18.2535 3.83642 18.2768 3.85102 18.3128 3.89407L18.6962 3.57306ZM18.2503 3.33321V2.83321H4.82429V3.33321V3.83321H18.2503V3.33321ZM4.82429 3.33321V2.83321C4.47452 2.83321 4.19712 3.01328 3.99674 3.25009L4.37843 3.57306L4.76013 3.89603C4.79672 3.85279 4.82069 3.83757 4.82825 3.8335C4.83176 3.83161 4.8322 3.83184 4.82999 3.83241C4.82768 3.83301 4.82543 3.83321 4.82429 3.83321V3.33321ZM4.37843 3.57306L3.99674 3.25009C3.79161 3.49253 3.67537 3.78211 3.67654 4.10455L4.17654 4.10273L4.67654 4.10092C4.6763 4.03693 4.69467 3.9734 4.76013 3.89603L4.37843 3.57306ZM4.17654 4.10273H3.67654V20.0541H4.17654H4.67654V4.10273H4.17654ZM4.17654 20.0541H3.67654C3.67654 20.3744 3.79277 20.6619 3.99509 20.9035L4.37843 20.5825L4.76178 20.2615C4.69491 20.1817 4.67654 20.1169 4.67654 20.0541H4.17654ZM4.37843 20.5825L3.99509 20.9035C4.19495 21.1422 4.47347 21.3242 4.82581 21.3224L4.82324 20.8224L4.82066 20.3224C4.82221 20.3224 4.82499 20.3226 4.82791 20.3234C4.83074 20.3241 4.83088 20.3245 4.82789 20.3229C4.82135 20.3194 4.79799 20.3048 4.76178 20.2615L4.37843 20.5825ZM4.82324 20.8224V21.3224H10.9716V20.8224V20.3224H4.82324V20.8224ZM10.9716 20.8224V21.3224C10.9755 21.3224 10.9756 21.3227 10.9728 21.3221C10.9699 21.3215 10.966 21.3203 10.9618 21.3183C10.9599 21.3174 10.9583 21.3165 10.9571 21.3157C10.9565 21.3153 10.9561 21.315 10.9557 21.3148C10.9556 21.3147 10.9555 21.3146 10.9554 21.3145C10.9553 21.3145 10.9553 21.3145 10.9553 21.3145C10.9553 21.3145 10.9553 21.3145 10.9554 21.3146C10.9555 21.3146 10.9556 21.3147 10.9558 21.3149C10.9561 21.3152 10.9566 21.3157 10.9573 21.3163C10.9587 21.3177 10.9607 21.3198 10.9634 21.323L11.3459 21.001L11.7285 20.679C11.5378 20.4526 11.2755 20.3224 10.9716 20.3224V20.8224ZM11.3459 21.001L10.9634 21.323C10.9774 21.3396 10.997 21.3699 10.9974 21.4489L11.4974 21.447L11.9974 21.445C11.9963 21.1676 11.9149 20.9006 11.7285 20.679L11.3459 21.001ZM11.4974 21.447L10.9974 21.4489C10.9977 21.5251 10.9789 21.5528 10.9656 21.5684L11.3459 21.893L11.7262 22.2176C11.9163 21.9949 11.9985 21.7253 11.9974 21.445L11.4974 21.447ZM11.3459 21.893L10.9656 21.5684C10.9597 21.5753 10.9562 21.5782 10.9557 21.5786C10.9553 21.5789 10.957 21.5775 10.9608 21.5757C10.9646 21.5739 10.9684 21.5726 10.9715 21.5719C10.9745 21.5713 10.9748 21.5716 10.9716 21.5716V22.0716V22.5716C11.2753 22.5716 11.5359 22.4405 11.7262 22.2176L11.3459 21.893ZM10.9716 22.0716V21.5716H4.82429V22.0716V22.5716H10.9716V22.0716ZM17.0621 21.5694L17.4449 21.8911L21.3335 17.264L20.9507 16.9423L20.5679 16.6206L16.6793 21.2477L17.0621 21.5694ZM20.9507 16.9423L21.3332 17.2643C21.3496 17.2448 21.3574 17.2417 21.3542 17.2434C21.3529 17.2441 21.3506 17.2451 21.3479 17.2458C21.3453 17.2466 21.3441 17.2466 21.3451 17.2465L21.3156 16.7474L21.2861 16.2483C20.9903 16.2657 20.7466 16.4083 20.5682 16.6203L20.9507 16.9423ZM21.3156 16.7474L21.3451 17.2465C21.3371 17.247 21.327 17.2465 21.3161 17.2442C21.3054 17.2419 21.2972 17.2386 21.2924 17.2362C21.2832 17.2316 21.2936 17.2341 21.319 17.2643L21.7015 16.9423L22.084 16.6203C21.8974 16.3985 21.6276 16.2281 21.2861 16.2483L21.3156 16.7474ZM21.7015 16.9423L21.319 17.2643C21.37 17.3249 21.3751 17.3616 21.375 17.386L21.875 17.3882L22.375 17.3904C22.3763 17.0967 22.2657 16.8361 22.084 16.6203L21.7015 16.9423ZM21.875 17.3882L21.375 17.386C21.3749 17.414 21.3681 17.4532 21.3171 17.5145L21.7015 17.8342L22.0859 18.1539C22.2648 17.9388 22.3737 17.6806 22.375 17.3904L21.875 17.3882ZM21.7015 17.8342L21.3198 17.5112L17.2746 22.2907L17.6562 22.6138L18.0379 22.9368L22.0831 18.1572L21.7015 17.8342ZM17.6562 22.6138L17.273 22.2925C17.1819 22.4012 17.1157 22.4173 17.0589 22.4173V22.9173V23.4173C17.4592 23.4173 17.7912 23.231 18.0394 22.935L17.6562 22.6138ZM17.0589 22.9173V22.4173C17.0013 22.4173 16.935 22.4009 16.8442 22.293L16.4617 22.615L16.0792 22.937C16.3276 23.2322 16.6595 23.4173 17.0589 23.4173V22.9173ZM16.4617 22.615L16.8425 22.291L14.9319 20.0449L14.551 20.3689L14.1702 20.6929L16.0808 22.939L16.4617 22.615ZM14.551 20.3689L14.9197 20.0311C14.8928 20.0017 14.8828 19.9776 14.8828 19.9342H14.3828H13.8828C13.8828 20.2255 13.985 20.4912 14.1824 20.7067L14.551 20.3689ZM14.3828 19.9342H14.8828C14.8828 19.8935 14.893 19.8533 14.9388 19.7989L14.5563 19.477L14.1738 19.155C13.9882 19.3754 13.8828 19.64 13.8828 19.9342H14.3828ZM14.5563 19.477L14.9378 19.8001C14.967 19.7657 14.9819 19.7581 14.9788 19.7598C14.9768 19.7609 14.9707 19.7639 14.9608 19.7666C14.9507 19.7693 14.9396 19.7708 14.9285 19.7708V19.2708V18.7708C14.6012 18.7708 14.3495 18.9475 14.1747 19.1538L14.5563 19.477ZM14.9285 19.2708V19.7708C14.9175 19.7708 14.9063 19.7693 14.8963 19.7666C14.8864 19.7639 14.8802 19.7609 14.8782 19.7598C14.8751 19.7581 14.8901 19.7657 14.9192 19.8001L15.3008 19.477L15.6823 19.1538C15.5076 18.9475 15.2559 18.7708 14.9285 18.7708V19.2708ZM15.3008 19.477L14.9183 19.7989L16.6796 21.8914L17.0621 21.5694L17.4446 21.2474L15.6833 19.155L15.3008 19.477ZM8.02938 12.7636L8.4119 13.0856C8.65282 12.7994 8.76072 12.4516 8.76072 12.0778H8.26072H7.76072C7.76072 12.2519 7.71438 12.3614 7.64686 12.4416L8.02938 12.7636ZM8.26072 12.0778H8.76072C8.76072 11.704 8.65282 11.3562 8.4119 11.07L8.02938 11.392L7.64686 11.714C7.71438 11.7942 7.76072 11.9036 7.76072 12.0778H8.26072ZM8.02938 11.392L8.4119 11.07C8.1672 10.7793 7.83749 10.6171 7.45314 10.6171V11.1171V11.6171C7.52865 11.6171 7.5831 11.6382 7.64686 11.714L8.02938 11.392ZM7.45314 11.1171V10.6171C7.0684 10.6171 6.73765 10.7785 6.49227 11.07L6.87479 11.392L7.25731 11.714C7.32038 11.639 7.37519 11.6171 7.45314 11.6171V11.1171ZM6.87479 11.392L6.49227 11.07C6.25134 11.3562 6.14345 11.704 6.14345 12.0778H6.64345H7.14345C7.14345 11.9036 7.18978 11.7942 7.25731 11.714L6.87479 11.392ZM6.64345 12.0778H6.14345C6.14345 12.4516 6.25134 12.7994 6.49227 13.0856L6.87479 12.7636L7.25731 12.4416C7.18978 12.3614 7.14345 12.2519 7.14345 12.0778H6.64345ZM6.87479 12.7636L6.49227 13.0856C6.73765 13.3771 7.0684 13.5384 7.45314 13.5384V13.0384V12.5384C7.37519 12.5384 7.32038 12.5166 7.25731 12.4416L6.87479 12.7636ZM7.45314 13.0384V13.5384C7.83797 13.5384 8.16879 13.377 8.41367 13.0847L8.03043 12.7636L7.64719 12.4425C7.58502 12.5167 7.53098 12.5384 7.45314 12.5384V13.0384ZM8.03043 8.05403L8.41295 8.37602C8.65364 8.09009 8.76177 7.74288 8.76177 7.36946H8.26177H7.76177C7.76177 7.54236 7.71567 7.65154 7.64791 7.73204L8.03043 8.05403ZM8.26177 7.36946H8.76177C8.76177 6.99594 8.65363 6.64891 8.41438 6.3621L8.03043 6.68238L7.64648 7.00267C7.71568 7.08562 7.76177 7.19664 7.76177 7.36946H8.26177ZM8.03043 6.68238L8.41438 6.3621C8.16885 6.06776 7.83626 5.90477 7.44848 5.90757L7.45208 6.40755L7.45568 6.90754C7.53058 6.907 7.58356 6.92724 7.64648 7.00267L8.03043 6.68238ZM7.45208 6.40755L7.44848 5.90757C7.06669 5.91032 6.73771 6.07014 6.49299 6.35953L6.87479 6.68238L7.25658 7.00523C7.31892 6.93152 7.3748 6.90812 7.45568 6.90754L7.45208 6.40755ZM6.87479 6.68238L6.49299 6.35953C6.25132 6.64533 6.1444 6.99414 6.14345 7.36819L6.64345 7.36946L7.14345 7.37073C7.1439 7.19178 7.19121 7.08254 7.25658 7.00523L6.87479 6.68238ZM6.64345 7.36946L6.14345 7.36819C6.1425 7.74402 6.24992 8.0946 6.49518 8.38071L6.87479 8.05528L7.25439 7.72986C7.18981 7.65452 7.143 7.54789 7.14345 7.37073L6.64345 7.36946ZM6.87479 8.05528L6.49518 8.38071C6.74044 8.66679 7.06784 8.82597 7.44772 8.83008L7.45314 8.33011L7.45855 7.83014C7.37715 7.82926 7.31899 7.80521 7.25439 7.72986L6.87479 8.05528ZM7.45314 8.33011V8.83011C7.83928 8.83011 8.16832 8.66533 8.41223 8.37688L8.03043 8.05403L7.64863 7.73119C7.58268 7.80918 7.52686 7.83011 7.45314 7.83011V8.33011ZM15.8244 12.7024V13.2024C16.1282 13.2024 16.3912 13.0728 16.5824 12.8458L16.1998 12.5238L15.8173 12.2018C15.8121 12.208 15.8093 12.2102 15.8094 12.2101C15.8097 12.2099 15.8119 12.2082 15.816 12.2063C15.82 12.2043 15.8238 12.2031 15.8265 12.2025C15.8291 12.202 15.8287 12.2024 15.8244 12.2024V12.7024ZM16.1998 12.5238L16.5824 12.8458C16.7694 12.6236 16.8502 12.3558 16.8502 12.0778H16.3502H15.8502C15.8502 12.1563 15.8308 12.1857 15.8173 12.2018L16.1998 12.5238ZM16.3502 12.0778H16.8502C16.8502 11.7998 16.7694 11.532 16.5824 11.3098L16.1998 11.6318L15.8173 11.9538C15.8308 11.9698 15.8502 11.9993 15.8502 12.0778H16.3502ZM16.1998 11.6318L16.5824 11.3098C16.3912 11.0828 16.1282 10.9532 15.8244 10.9532V11.4532V11.9532C15.8287 11.9532 15.8291 11.9536 15.8265 11.953C15.8238 11.9524 15.82 11.9513 15.816 11.9493C15.8119 11.9474 15.8097 11.9457 15.8094 11.9455C15.8093 11.9454 15.8121 11.9476 15.8173 11.9538L16.1998 11.6318ZM15.8244 11.4532V10.9532H11.2134V11.4532V11.9532H15.8244V11.4532ZM11.2134 11.4532V10.9532C10.9095 10.9532 10.6472 11.0834 10.4566 11.3098L10.8391 11.6318L11.2216 11.9538C11.2243 11.9506 11.2264 11.9485 11.2277 11.9471C11.2284 11.9465 11.2289 11.946 11.2292 11.9457C11.2294 11.9455 11.2295 11.9454 11.2296 11.9454C11.2297 11.9453 11.2298 11.9453 11.2298 11.9453C11.2298 11.9453 11.2297 11.9453 11.2296 11.9454C11.2296 11.9454 11.2294 11.9455 11.2293 11.9456C11.229 11.9458 11.2285 11.9461 11.2279 11.9465C11.2267 11.9473 11.2251 11.9482 11.2232 11.9491C11.2191 11.9511 11.2151 11.9523 11.2122 11.9529C11.2094 11.9535 11.2095 11.9532 11.2134 11.9532V11.4532ZM10.8391 11.6318L10.4566 11.3098C10.2701 11.5314 10.1888 11.7984 10.1877 12.0758L10.6877 12.0778L11.1877 12.0798C11.188 12.0007 11.2076 11.9704 11.2216 11.9538L10.8391 11.6318ZM10.6877 12.0778L10.1877 12.0758C10.1866 12.3561 10.2687 12.6257 10.4588 12.8484L10.8391 12.5238L11.2194 12.1992C11.2062 12.1836 11.1874 12.1559 11.1877 12.0798L10.6877 12.0778ZM10.8391 12.5238L10.4588 12.8484C10.6491 13.0713 10.9097 13.2024 11.2134 13.2024V12.7024V12.2024C11.2102 12.2024 11.2105 12.2021 11.2135 12.2027C11.2166 12.2034 11.2204 12.2047 11.2243 12.2065C11.228 12.2083 11.2297 12.2097 11.2294 12.2094C11.2288 12.209 11.2254 12.2061 11.2194 12.1992L10.8391 12.5238ZM11.2134 12.7024V13.2024H15.8244V12.7024V12.2024H11.2134V12.7024ZM15.8244 7.99282V8.49282C16.1269 8.49282 16.3896 8.36478 16.5812 8.13874L16.1998 7.81543L15.8184 7.49212C15.8133 7.49817 15.8106 7.50028 15.8107 7.50014C15.8111 7.4999 15.8133 7.49826 15.8172 7.4964C15.8211 7.49453 15.8248 7.49342 15.8272 7.49289C15.8296 7.49239 15.8289 7.49282 15.8244 7.49282V7.99282ZM16.1998 7.81543L16.5812 8.13874C16.7697 7.91638 16.8502 7.64753 16.8502 7.36946H16.3502H15.8502C15.8502 7.4495 15.8304 7.47796 15.8184 7.49212L16.1998 7.81543ZM16.3502 7.36946H16.8502C16.8502 7.09139 16.7697 6.82253 16.5812 6.60017L16.1998 6.92348L15.8184 7.24679C15.8304 7.26096 15.8502 7.28942 15.8502 7.36946H16.3502ZM16.1998 6.92348L16.5812 6.60017C16.3902 6.37484 16.1287 6.24653 15.8272 6.24485L15.8244 6.74484L15.8217 7.24484C15.8263 7.24486 15.8272 7.24531 15.8251 7.24486C15.8229 7.24438 15.8196 7.24335 15.816 7.24162C15.8143 7.24081 15.8129 7.24002 15.8118 7.23936C15.8108 7.23871 15.8103 7.23831 15.8103 7.23835C15.8103 7.23837 15.8132 7.24063 15.8184 7.24679L16.1998 6.92348ZM15.8244 6.74484V6.24484H11.2134V6.74484V7.24484H15.8244V6.74484ZM11.2134 6.74484V6.24484C10.9095 6.24484 10.6472 6.37505 10.4566 6.6015L10.8391 6.92348L11.2216 7.24547C11.2243 7.24228 11.2264 7.24013 11.2277 7.2388C11.2284 7.23813 11.2289 7.23767 11.2292 7.23737C11.2294 7.23722 11.2295 7.23711 11.2296 7.23704C11.2297 7.23697 11.2298 7.23694 11.2298 7.23694C11.2298 7.23694 11.2297 7.23697 11.2296 7.23703C11.2296 7.23709 11.2294 7.23717 11.2293 7.23728C11.229 7.2375 11.2285 7.23781 11.2279 7.23818C11.2267 7.23893 11.2251 7.23983 11.2232 7.24076C11.2191 7.24273 11.2151 7.24398 11.2122 7.24461C11.2094 7.24522 11.2095 7.24484 11.2134 7.24484V6.74484ZM10.8391 6.92348L10.4566 6.6015C10.2701 6.82304 10.1888 7.09008 10.1877 7.36749L10.6877 7.36946L11.1877 7.37142C11.188 7.29239 11.2076 7.26211 11.2216 7.24547L10.8391 6.92348ZM10.6877 7.36946L10.1877 7.36749C10.1866 7.64778 10.2687 7.91736 10.4588 8.14003L10.8391 7.81543L11.2194 7.49083C11.2062 7.47531 11.1874 7.44758 11.1877 7.37142L10.6877 7.36946ZM10.8391 7.81543L10.4588 8.14003C10.6491 8.363 10.9097 8.49407 11.2134 8.49407V7.99407V7.49407C11.2102 7.49407 11.2105 7.49377 11.2135 7.49442C11.2166 7.49509 11.2204 7.49634 11.2243 7.49816C11.228 7.49995 11.2297 7.50134 11.2294 7.50104C11.2288 7.50064 11.2254 7.4978 11.2194 7.49083L10.8391 7.81543ZM11.2134 7.99407L11.2136 8.49407L15.8246 8.49282L15.8244 7.99282L15.8243 7.49282L11.2133 7.49407L11.2134 7.99407Z" fill="#1458D4" mask="url(#path-1-outside-1_22842_16)"/>
</svg>
