<svg width="16" height="10" viewBox="0 0 16 10" fill="none" xmlns="http://www.w3.org/2000/svg">
<path d="M15.5509 0.646913C15.2665 0.360676 14.8818 0.200012 14.4809 0.200012C14.0799 0.200012 13.6952 0.360676 13.4108 0.646913L7.96193 6.08732L2.58893 0.646913C2.30455 0.360676 1.91987 0.200012 1.51889 0.200012C1.11791 0.200012 0.733218 0.360676 0.44884 0.646913C0.306579 0.789782 0.193663 0.959758 0.116607 1.14704C0.0395501 1.33431 -0.00012207 1.53519 -0.00012207 1.73807C-0.00012207 1.94095 0.0395501 2.14182 0.116607 2.3291C0.193663 2.51638 0.306579 2.68635 0.44884 2.82922L6.8843 9.34542C7.02539 9.48946 7.19326 9.6038 7.37822 9.68182C7.56318 9.75984 7.76156 9.80001 7.96193 9.80001C8.1623 9.80001 8.36068 9.75984 8.54564 9.68182C8.7306 9.6038 8.89847 9.48946 9.03957 9.34542L15.5509 2.82922C15.6932 2.68635 15.8061 2.51638 15.8831 2.3291C15.9602 2.14182 15.9999 1.94095 15.9999 1.73807C15.9999 1.53519 15.9602 1.33431 15.8831 1.14704C15.8061 0.959758 15.6932 0.789782 15.5509 0.646913Z" fill="#0FA374"/>
</svg>
