<svg width="21" height="21" viewBox="0 0 21 21" fill="none" xmlns="http://www.w3.org/2000/svg">
<path fill-rule="evenodd" clip-rule="evenodd" d="M18.8875 2.89069H12.2397V1.32422L1.3125 3.01078V17.7941L12.2397 19.6763V17.3544H18.8875C19.089 17.365 19.2863 17.2952 19.4363 17.1603C19.5863 17.0255 19.6766 16.8366 19.6875 16.6352V3.60928C19.6765 3.40799 19.5861 3.21929 19.4361 3.08458C19.2861 2.94986 19.0888 2.88013 18.8875 2.89069ZM18.9925 16.7546H12.2174L12.2063 15.515H13.8383V14.0712H12.1938L12.1859 13.2181H13.8383V11.7743H12.1734L12.1656 10.9212H13.8383V9.47747H12.1603V8.62434H13.8383V7.18059H12.1603V6.32747H13.8383V4.88372H12.1603V3.57122H18.9925V16.7546Z" fill="#1458D3"/>
<path d="M14.7578 4.88184H17.5948V6.32559H14.7578V4.88184ZM14.7578 7.17937H17.5948V8.62312H14.7578V7.17937ZM14.7578 9.4769H17.5948V10.9206H14.7578V9.4769ZM14.7578 11.7744H17.5948V13.2182H14.7578V11.7744ZM14.7578 14.072H17.5948V15.5157H14.7578V14.072Z" fill="#1458D3"/>
<path fill-rule="evenodd" clip-rule="evenodd" d="M4.16567 7.00403L5.57398 6.92331L6.45927 9.35734L7.50533 6.82291L8.91364 6.74219L7.20345 10.198L8.91364 13.6623L7.42461 13.5619L6.41923 10.9212L5.4132 13.4615L4.04492 13.3408L5.63436 10.2807L4.16567 7.00403Z" fill="white"/>
</svg>
