<svg width="25" height="25" viewBox="0 0 25 25" fill="none" xmlns="http://www.w3.org/2000/svg">
<path d="M14.4062 0.0103457L0.40625 2.6666C0.169922 2.71152 0 2.92636 0 3.1666V21.8228C0 22.0631 0.169922 22.2779 0.40625 22.3228L14.4062 24.9791C14.4375 24.985 14.4688 24.9947 14.5 24.9947C14.6152 24.9947 14.7227 24.9596 14.8125 24.8853C14.9277 24.7896 15 24.6432 15 24.4947V0.494721C15 0.346283 14.9277 0.199799 14.8125 0.104096C14.6973 0.00839255 14.5527 -0.0169981 14.4062 0.0103457ZM16 2.99472V6.49472H17V7.49472H16V9.99472H17V10.9947H16V13.4947H17V14.4947H16V17.4947H17V18.4947H16V21.9947H23.5C24.0508 21.9947 24.5 21.5455 24.5 20.9947V3.99472C24.5 3.44394 24.0508 2.99472 23.5 2.99472H16ZM18 6.49472H22V7.49472H18V6.49472ZM3.34375 7.83847H5.90625L7.25 10.6353C7.35547 10.856 7.44922 11.1275 7.53125 11.4322H7.54688C7.59961 11.2506 7.70117 10.9654 7.84375 10.6041L9.32812 7.83847H11.6719L8.875 12.4635L11.75 17.1822H9.26562L7.64062 14.1353C7.58008 14.0221 7.51758 13.8131 7.45312 13.5103H7.4375C7.40625 13.6529 7.33203 13.8756 7.21875 14.1666L5.59375 17.1822H3.09375L6.07812 12.5103L3.34375 7.83847ZM18 9.99472H22V10.9947H18V9.99472ZM18 13.4947H22V14.4947H18V13.4947ZM18 17.4947H22V18.4947H18V17.4947Z" fill="white"/>
</svg>
