<svg width="24" height="18" viewBox="0 0 24 18" fill="none" xmlns="http://www.w3.org/2000/svg">
    <path d="M12 0.5C14.5437 0.5 16.8573 1.27849 18.9551 2.8457C21.0078 4.37929 22.5101 6.42572 23.4648 9C22.5101 11.5743 21.0078 13.6207 18.9551 15.1543C16.8573 16.7215 14.5437 17.5 12 17.5C9.45632 17.5 7.14272 16.7215 5.04492 15.1543C2.99208 13.6207 1.48895 11.5744 0.53418 9C1.48895 6.42557 2.99208 4.37935 5.04492 2.8457C7.14272 1.27849 9.45632 0.5 12 0.5ZM12 1.90039C9.84189 1.90039 7.8569 2.52759 6.05664 3.77441C4.25919 5.01931 2.88841 6.69719 1.94434 8.79492L1.85156 9L1.94434 9.20508C2.88841 11.3028 4.25919 12.9807 6.05664 14.2256C7.8569 15.4724 9.84189 16.0996 12 16.0996C14.1581 16.0996 16.1431 15.4724 17.9434 14.2256C19.7408 12.9807 21.1116 11.3028 22.0557 9.20508L22.1484 9L22.0557 8.79492C21.1116 6.69719 19.7408 5.01931 17.9434 3.77441C16.1431 2.52759 14.1581 1.90039 12 1.90039ZM12 4.09961C13.2164 4.09961 14.2433 4.56116 15.1074 5.51172C15.9731 6.46404 16.4092 7.61674 16.4092 9C16.4092 10.3833 15.9731 11.536 15.1074 12.4883C14.2433 13.4388 13.2164 13.9004 12 13.9004C10.7836 13.9004 9.75672 13.4388 8.89258 12.4883C8.02695 11.536 7.59082 10.3833 7.59082 9C7.59082 7.61674 8.02695 6.46404 8.89258 5.51172C9.75672 4.56116 10.7836 4.09961 12 4.09961ZM12 5.25977C11.0346 5.25977 10.2071 5.6397 9.54395 6.36914C8.88254 7.09675 8.55469 7.98344 8.55469 9C8.55469 10.0166 8.88254 10.9033 9.54395 11.6309C10.2071 12.3603 11.0346 12.7402 12 12.7402C12.9654 12.7402 13.7929 12.3603 14.4561 11.6309C15.1175 10.9033 15.4453 10.0166 15.4453 9C15.4453 7.98344 15.1175 7.09675 14.4561 6.36914C13.7929 5.6397 12.9654 5.25977 12 5.25977Z" fill="#1458D3" stroke="#1458D3"/>
</svg>
