<svg width="22" height="22" viewBox="0 0 22 22" fill="none" xmlns="http://www.w3.org/2000/svg">
<path d="M5 11.5V8.095C5.00005 7.874 5.09039 7.66208 5.25114 7.50583L8.606 4.24417C8.76671 4.08788 8.98469 4.00005 9.212 4H16.1429C16.3702 4 16.5882 4.0878 16.7489 4.24408C16.9097 4.40036 17 4.61232 17 4.83333V18.1667C17 18.3877 16.9097 18.5996 16.7489 18.7559C16.5882 18.9122 16.3702 19 16.1429 19H5.85714C5.62981 19 5.4118 18.9122 5.25105 18.7559C5.09031 18.5996 5 18.3877 5 18.1667V14.8333M9.28571 4V7.33333C9.28571 7.55435 9.19541 7.76631 9.03466 7.92259C8.87392 8.07887 8.6559 8.16667 8.42857 8.16667H5M5 13.1667H12.7143M12.7143 13.1667L11 11.5M12.7143 13.1667L11 14.8333" stroke="#646464" stroke-width="1.5" stroke-linecap="round" stroke-linejoin="round"/>
</svg>
