<svg width="24" height="24" viewBox="0 0 24 24" fill="none" xmlns="http://www.w3.org/2000/svg">
<path d="M15.5 5.99809H19.4C19.4495 5.99741 19.4978 5.98202 19.5385 5.95387C19.5793 5.92573 19.6108 5.88611 19.629 5.84003C19.6472 5.79396 19.6514 5.74351 19.6408 5.69509C19.6303 5.64668 19.6057 5.60247 19.57 5.56809L14.43 0.428094C14.3956 0.392417 14.3514 0.367759 14.303 0.357251C14.2546 0.346742 14.2041 0.350857 14.1581 0.369072C14.112 0.387288 14.0724 0.418783 14.0442 0.459559C14.0161 0.500335 14.0007 0.548554 14 0.598094V4.49809C14 4.89592 14.158 5.27745 14.4393 5.55875C14.7206 5.84006 15.1022 5.99809 15.5 5.99809Z" fill="#454545"/>
<path d="M22.8 10H3.25C3.1837 10 3.12011 9.97366 3.07322 9.92678C3.02634 9.87989 3 9.8163 3 9.75V9C3 8.9337 3.02634 8.87011 3.07322 8.82322C3.12011 8.77634 3.1837 8.75 3.25 8.75H19.75C19.8163 8.75 19.8799 8.72366 19.9268 8.67678C19.9737 8.62989 20 8.5663 20 8.5V7.25C20 7.1837 19.9737 7.12011 19.9268 7.07322C19.8799 7.02634 19.8163 7 19.75 7H15.5C14.837 7 14.2011 6.73661 13.7322 6.26777C13.2634 5.79893 13 5.16304 13 4.5V0.25C13 0.183696 12.9737 0.120107 12.9268 0.0732233C12.8799 0.0263392 12.8163 0 12.75 0L2 0C1.46957 0 0.960859 0.210714 0.585786 0.585786C0.210714 0.960859 0 1.46957 0 2L0 22C0 22.5304 0.210714 23.0391 0.585786 23.4142C0.960859 23.7893 1.46957 24 2 24H18C18.4494 23.9986 18.8851 23.8458 19.2371 23.5665C19.589 23.2871 19.8367 22.8973 19.94 22.46C19.94 22.39 19.94 22.25 19.81 22.25H3.25C3.1837 22.25 3.12011 22.2237 3.07322 22.1768C3.02634 22.1299 3 22.0663 3 22V21.25C3 21.1837 3.02634 21.1201 3.07322 21.0732C3.12011 21.0263 3.1837 21 3.25 21H22.8C23.0909 21.0224 23.379 20.9305 23.6031 20.7437C23.8272 20.557 23.9696 20.2901 24 20V11C23.9696 10.7099 23.8272 10.443 23.6031 10.2563C23.379 10.0695 23.0909 9.97758 22.8 10ZM6.62 18.5C6.62 18.6644 6.55468 18.8221 6.43841 18.9384C6.32213 19.0547 6.16443 19.12 6 19.12C5.83557 19.12 5.67787 19.0547 5.56159 18.9384C5.44532 18.8221 5.38 18.6644 5.38 18.5V16.38C5.37741 16.3128 5.34888 16.2492 5.3004 16.2026C5.25192 16.156 5.18726 16.1299 5.12 16.13H3.88C3.81274 16.1299 3.74808 16.156 3.6996 16.2026C3.65112 16.2492 3.62259 16.3128 3.62 16.38V18.5C3.62 18.6644 3.55468 18.8221 3.43841 18.9384C3.32213 19.0547 3.16443 19.12 3 19.12C2.83557 19.12 2.67787 19.0547 2.56159 18.9384C2.44532 18.8221 2.38 18.6644 2.38 18.5V12.5C2.38 12.3356 2.44532 12.1779 2.56159 12.0616C2.67787 11.9453 2.83557 11.88 3 11.88C3.16443 11.88 3.32213 11.9453 3.43841 12.0616C3.55468 12.1779 3.62 12.3356 3.62 12.5V14.63C3.62259 14.6972 3.65112 14.7608 3.6996 14.8074C3.74808 14.854 3.81274 14.88 3.88 14.88H5.12C5.18726 14.88 5.25192 14.854 5.3004 14.8074C5.34888 14.7608 5.37741 14.6972 5.38 14.63V12.5C5.38 12.3356 5.44532 12.1779 5.56159 12.0616C5.67787 11.9453 5.83557 11.88 6 11.88C6.16443 11.88 6.32213 11.9453 6.43841 12.0616C6.55468 12.1779 6.62 12.3356 6.62 12.5V18.5ZM12 13.13H10.88C10.8127 13.13 10.7481 13.156 10.6996 13.2026C10.6511 13.2492 10.6226 13.3128 10.62 13.38V18.5C10.62 18.6644 10.5547 18.8221 10.4384 18.9384C10.3221 19.0547 10.1644 19.12 10 19.12C9.83557 19.12 9.67787 19.0547 9.56159 18.9384C9.44532 18.8221 9.38 18.6644 9.38 18.5V13.38C9.37741 13.3128 9.34888 13.2492 9.3004 13.2026C9.25192 13.156 9.18726 13.13 9.12 13.13H8C7.84785 13.1107 7.70796 13.0366 7.60656 12.9215C7.50516 12.8065 7.44921 12.6584 7.44921 12.505C7.44921 12.3516 7.50516 12.2035 7.60656 12.0885C7.70796 11.9734 7.84785 11.8993 8 11.88H12C12.1522 11.8993 12.292 11.9734 12.3934 12.0885C12.4948 12.2035 12.5508 12.3516 12.5508 12.505C12.5508 12.6584 12.4948 12.8065 12.3934 12.9215C12.292 13.0366 12.1522 13.1107 12 13.13ZM17.62 18.5C17.62 18.5814 17.604 18.662 17.5728 18.7373C17.5416 18.8125 17.496 18.8808 17.4384 18.9384C17.3808 18.996 17.3125 19.0416 17.2373 19.0728C17.162 19.104 17.0814 19.12 17 19.12C16.9186 19.12 16.838 19.104 16.7627 19.0728C16.6875 19.0416 16.6192 18.996 16.5616 18.9384C16.504 18.8808 16.4584 18.8125 16.4272 18.7373C16.396 18.662 16.38 18.5814 16.38 18.5V15.57C16.38 15.44 16.22 15.46 16.17 15.57L16.06 15.79C16.0007 15.8851 15.9182 15.9635 15.8202 16.0178C15.7222 16.0722 15.612 16.1007 15.5 16.1007C15.388 16.1007 15.2778 16.0722 15.1798 16.0178C15.0818 15.9635 14.9993 15.8851 14.94 15.79L14.82 15.55C14.82 15.46 14.62 15.48 14.62 15.55V18.5C14.62 18.6644 14.5547 18.8221 14.4384 18.9384C14.3221 19.0547 14.1644 19.12 14 19.12C13.8356 19.12 13.6779 19.0547 13.5616 18.9384C13.4453 18.8221 13.38 18.6644 13.38 18.5V12.5C13.3786 12.3589 13.4255 12.2215 13.5127 12.1106C13.6 11.9997 13.7225 11.9219 13.86 11.89C13.9968 11.8593 14.1399 11.8751 14.2666 11.9348C14.3934 11.9946 14.4967 12.095 14.56 12.22L15.38 13.87C15.391 13.8909 15.4076 13.9085 15.4278 13.9207C15.4481 13.9329 15.4713 13.9394 15.495 13.9394C15.5187 13.9394 15.5419 13.9329 15.5622 13.9207C15.5824 13.9085 15.599 13.8909 15.61 13.87L16.44 12.21C16.5047 12.0861 16.6081 11.9868 16.7345 11.9272C16.8609 11.8676 17.0033 11.851 17.14 11.88C17.2775 11.9119 17.4 11.9897 17.4873 12.1006C17.5745 12.2115 17.6214 12.3489 17.62 12.49V18.5ZM22 19.13H20C19.7864 19.13 19.5749 19.0878 19.3777 19.0057C19.1805 18.9237 19.0015 18.8035 18.8509 18.652C18.7004 18.5005 18.5813 18.3207 18.5004 18.123C18.4196 17.9253 18.3787 17.7136 18.38 17.5V12.5C18.38 12.3356 18.4453 12.1779 18.5616 12.0616C18.6779 11.9453 18.8356 11.88 19 11.88C19.1644 11.88 19.3221 11.9453 19.4384 12.0616C19.5547 12.1779 19.62 12.3356 19.62 12.5V17.5C19.62 17.6008 19.66 17.6974 19.7313 17.7687C19.8026 17.84 19.8992 17.88 20 17.88H22C22.1521 17.8993 22.292 17.9734 22.3934 18.0885C22.4948 18.2035 22.5508 18.3516 22.5508 18.505C22.5508 18.6584 22.4948 18.8065 22.3934 18.9215C22.292 19.0366 22.1521 19.1107 22 19.13Z" fill="#454545"/>
</svg>
