<svg width="28" height="28" viewBox="0 0 28 28" fill="none" xmlns="http://www.w3.org/2000/svg">
<circle cx="14" cy="14" r="14" fill="#1458D3"/>
<g clip-path="url(#clip0_27206_18038)">
<path d="M15 10.25V6H8.75C8.33437 6 8 6.33437 8 6.75V21.25C8 21.6656 8.33437 22 8.75 22H19.25C19.6656 22 20 21.6656 20 21.25V11H15.75C15.3375 11 15 10.6625 15 10.25ZM10.9628 15.9998H12.9997V13.4998C12.9997 13.2235 13.2234 12.9998 13.4997 12.9998H14.4997C14.7759 12.9998 14.9997 13.2235 14.9997 13.4998V15.9998H17.0365C17.4828 15.9998 17.7056 16.5401 17.3887 16.8548L14.3756 19.8454C14.1678 20.052 13.8322 20.052 13.6244 19.8454L10.6112 16.8548C10.294 16.5401 10.5165 15.9998 10.9628 15.9998ZM19.7812 9.28125L16.7219 6.21875C16.5813 6.07812 16.3906 6 16.1906 6H16V10H20V9.80938C20 9.6125 19.9219 9.42188 19.7812 9.28125Z" fill="white"/>
</g>
<defs>
<clipPath id="clip0_27206_18038">
<rect width="12" height="16" fill="white" transform="translate(8 6)"/>
</clipPath>
</defs>
</svg>
