<svg width="28" height="28" viewBox="0 0 28 28" fill="none" xmlns="http://www.w3.org/2000/svg">
<circle cx="14" cy="14" r="14" fill="#941100"/>
<path d="M8.8125 23C8.29688 23 7.85562 22.8152 7.48875 22.4456C7.12187 22.076 6.93813 21.6312 6.9375 21.1111V8.83333H6V6.94444H10.6875V6H16.3125V6.94444H21V8.83333H20.0625V21.1111C20.0625 21.6306 19.8791 22.0754 19.5122 22.4456C19.1453 22.8158 18.7037 23.0006 18.1875 23H8.8125ZM18.1875 8.83333H8.8125V21.1111H18.1875V8.83333ZM10.6875 19.2222H12.5625V10.7222H10.6875V19.2222ZM14.4375 19.2222H16.3125V10.7222H14.4375V19.2222Z" fill="white"/>
</svg>
