<svg width="28" height="28" viewBox="0 0 28 28" fill="none" xmlns="http://www.w3.org/2000/svg">
<circle cx="14" cy="14" r="14" fill="#1458D3"/>
<g clip-path="url(#clip0_27206_17941)">
<path d="M15 10.25V6H8.75C8.33437 6 8 6.33437 8 6.75V21.25C8 21.6656 8.33437 22 8.75 22H19.25C19.6656 22 20 21.6656 20 21.25V11H15.75C15.3375 11 15 10.6625 15 10.25ZM17.0369 17.0003H15V19.5003C15 19.7766 14.7762 20.0003 14.5 20.0003H13.5C13.2238 20.0003 13 19.7766 13 19.5003V17.0003H10.9631C10.5169 17.0003 10.2941 16.46 10.6109 16.1453L13.6241 13.1547C13.8319 12.9481 14.1675 12.9481 14.3753 13.1547L17.3884 16.1453C17.7056 16.46 17.4831 17.0003 17.0369 17.0003ZM19.7812 9.28125L16.7219 6.21875C16.5813 6.07812 16.3906 6 16.1906 6H16V10H20V9.80938C20 9.6125 19.9219 9.42188 19.7812 9.28125Z" fill="white"/>
</g>
<defs>
<clipPath id="clip0_27206_17941">
<rect width="12" height="16" fill="white" transform="translate(8 6)"/>
</clipPath>
</defs>
</svg>
