<svg width="14" height="17" viewBox="0 0 14 17" fill="none" xmlns="http://www.w3.org/2000/svg">
    <path d="M1 8.5V5.095C1.00005 4.874 1.09039 4.66208 1.25114 4.50583L4.606 1.24417C4.76671 1.08788 4.98469 1.00005 5.212 1H12.1429C12.3702 1 12.5882 1.0878 12.7489 1.24408C12.9097 1.40036 13 1.61232 13 1.83333V15.1667C13 15.3877 12.9097 15.5996 12.7489 15.7559C12.5882 15.9122 12.3702 16 12.1429 16H1.85714C1.62981 16 1.4118 15.9122 1.25105 15.7559C1.09031 15.5996 1 15.3877 1 15.1667V11.8333M5.28571 1V4.33333C5.28571 4.55435 5.19541 4.76631 5.03466 4.92259C4.87392 5.07887 4.6559 5.16667 4.42857 5.16667H1M1 10.1667H8.71429M8.71429 10.1667L7 8.5M8.71429 10.1667L7 11.8333" stroke="white" stroke-width="1.5" stroke-linecap="round" stroke-linejoin="round"/>
</svg>
