<svg width="16" height="16" viewBox="0 0 16 16" fill="none" xmlns="http://www.w3.org/2000/svg">
<path d="M8 0C3.58894 0 0 3.58894 0 8C0 12.4111 3.58894 16 8 16C12.4111 16 16 12.4111 16 8C16 3.58894 12.4111 0 8 0ZM8 1.23077C11.7452 1.23077 14.7692 4.25481 14.7692 8C14.7692 11.7452 11.7452 14.7692 8 14.7692C4.25481 14.7692 1.23077 11.7452 1.23077 8C1.23077 4.25481 4.25481 1.23077 8 1.23077ZM7.38462 4.30769V5.53846H8.61539V4.30769H7.38462ZM7.38462 6.76923V11.6923H8.61539V6.76923H7.38462Z" fill="#5A5A5A"/>
</svg>
