<svg width="19" height="17" viewBox="0 0 19 17" fill="none" xmlns="http://www.w3.org/2000/svg">
<path d="M12.8333 4.58333V1.83333H5.5V4.58333H3.66667V0H14.6667V4.58333H12.8333ZM14.6667 8.70833C14.9264 8.70833 15.1442 8.62033 15.3202 8.44433C15.4963 8.26833 15.5839 8.05078 15.5833 7.79167C15.5827 7.53256 15.4947 7.315 15.3193 7.139C15.1439 6.963 14.9264 6.875 14.6667 6.875C14.4069 6.875 14.1894 6.963 14.014 7.139C13.8386 7.315 13.7506 7.53256 13.75 7.79167C13.7494 8.05078 13.8374 8.26864 14.014 8.44525C14.1906 8.62186 14.4082 8.70956 14.6667 8.70833ZM12.8333 14.6667V11H5.5V14.6667H12.8333ZM14.6667 16.5H3.66667V12.8333H0V7.33333C0 6.55417 0.267361 5.90119 0.802083 5.37442C1.33681 4.84764 1.98611 4.58394 2.75 4.58333H15.5833C16.3625 4.58333 17.0158 4.84703 17.5432 5.37442C18.0706 5.90181 18.3339 6.55478 18.3333 7.33333V12.8333H14.6667V16.5ZM16.5 11V7.33333C16.5 7.07361 16.412 6.85606 16.236 6.68067C16.06 6.50528 15.8424 6.41728 15.5833 6.41667H2.75C2.49028 6.41667 2.27272 6.50467 2.09733 6.68067C1.92194 6.85667 1.83394 7.07422 1.83333 7.33333V11H3.66667V9.16667H14.6667V11H16.5Z" fill="#1458D3"/>
</svg>
