<svg width="17" height="20" viewBox="0 0 17 20" fill="none" xmlns="http://www.w3.org/2000/svg">
<path d="M14.8754 5.00795H13.6697V3.52701C13.6695 2.5916 13.2907 1.69458 12.6165 1.03317C11.9422 0.371768 11.0279 0.000138155 10.0744 9.64168e-09H6.98824C6.03466 -6.91076e-05 5.12009 0.37147 4.44571 1.0329C3.77133 1.69432 3.39235 2.59147 3.39214 3.52701V5.00795H2.12457C1.5611 5.00795 1.02071 5.22755 0.622272 5.61844C0.223838 6.00934 0 6.5395 0 7.09231V17.9156C0 18.4684 0.223838 18.9986 0.622272 19.3895C1.02071 19.7804 1.5611 20 2.12457 20H14.8754C15.4389 20 15.9793 19.7804 16.3777 19.3895C16.7762 18.9986 17 18.4684 17 17.9156V7.09231C17 6.5395 16.7762 6.00934 16.3777 5.61844C15.9793 5.22755 15.4389 5.00795 14.8754 5.00795ZM5.11171 3.67682C5.11178 3.1423 5.32826 2.6297 5.71354 2.25176C6.09882 1.87382 6.62134 1.6615 7.16617 1.6615H9.86517C10.1339 1.6615 10.4 1.71343 10.6483 1.81433C10.8966 1.91523 11.1222 2.06312 11.3123 2.24956C11.5023 2.436 11.653 2.65733 11.7559 2.90093C11.8587 3.14452 11.9117 3.4056 11.9117 3.66926V5.00248H5.11304L5.11171 3.67682ZM13.5322 13.78C13.0682 16.0686 11.0092 17.7924 8.53944 17.7924C5.72863 17.7924 3.45003 15.5569 3.45003 12.7996C3.45003 10.0419 5.72863 7.80647 8.53944 7.80647C8.97727 7.80617 9.41332 7.86134 9.83675 7.97061L9.9714 7.42972C9.97931 7.39809 9.99544 7.36901 10.0182 7.34532C10.041 7.32163 10.0697 7.30414 10.1014 7.29456C10.1331 7.28498 10.1668 7.28363 10.1993 7.29065C10.2317 7.29767 10.2617 7.31282 10.2864 7.33462L12.9245 9.66624L9.49603 10.5055C9.46396 10.5133 9.43038 10.5129 9.39852 10.5043C9.36667 10.4956 9.33763 10.4791 9.31422 10.4562C9.29082 10.4333 9.27384 10.4049 9.26493 10.3737C9.25602 10.3424 9.25549 10.3095 9.26338 10.278L9.44663 9.543C9.15872 9.46732 8.86193 9.42904 8.56387 9.42914C7.66232 9.42914 6.79769 9.78051 6.1602 10.4059C5.5227 11.0314 5.16456 11.8796 5.16456 12.7641C5.16456 13.6486 5.5227 14.4969 6.1602 15.1223C6.79769 15.7477 7.66232 16.0991 8.56387 16.0991C9.34277 16.0995 10.0982 15.8375 10.7037 15.3568C11.3093 14.8762 11.7282 14.2061 11.8904 13.4587C11.9294 13.2733 12.0323 13.1067 12.1817 12.9868C12.3311 12.867 12.518 12.8012 12.711 12.8006C12.8346 12.8006 12.9567 12.8274 13.0684 12.8792C13.1802 12.931 13.2788 13.0064 13.3574 13.1C13.4359 13.1937 13.4923 13.3032 13.5225 13.4208C13.5527 13.5384 13.556 13.661 13.5322 13.78Z" fill="#1458D3"/>
</svg>
