<svg width="17" height="16" viewBox="0 0 17 16" fill="none" xmlns="http://www.w3.org/2000/svg">
<path d="M12.5056 7.33684C12.6685 7.17544 12.75 6.97544 12.75 6.73684C12.75 6.49825 12.6685 6.29825 12.5056 6.13684C12.3427 5.97544 12.1408 5.89474 11.9 5.89474C11.6592 5.89474 11.4573 5.97544 11.2944 6.13684C11.1315 6.29825 11.05 6.49825 11.05 6.73684C11.05 6.97544 11.1315 7.17544 11.2944 7.33684C11.4573 7.49825 11.6592 7.57895 11.9 7.57895C12.1408 7.57895 12.3427 7.49825 12.5056 7.33684ZM5.1 5.89474H9.35V4.21053H5.1V5.89474ZM2.125 16C1.64333 14.4 1.16875 12.8035 0.70125 11.2105C0.23375 9.61754 0 7.98597 0 6.31579C0 5.02456 0.453333 3.92982 1.36 3.03158C2.26667 2.13333 3.37167 1.68421 4.675 1.68421H8.925C9.33583 1.15088 9.83521 0.736842 10.4231 0.442105C11.011 0.147368 11.645 0 12.325 0C12.6792 0 12.9802 0.122807 13.2281 0.368421C13.476 0.614035 13.6 0.912281 13.6 1.26316C13.6 1.34737 13.5894 1.43158 13.5681 1.51579C13.5469 1.6 13.5221 1.67719 13.4938 1.74737C13.4371 1.90175 13.384 2.05965 13.3344 2.22105C13.2848 2.38246 13.2458 2.54737 13.2175 2.71579L15.1513 4.63158H17V10.5053L14.5988 11.2842L13.175 16H8.5V14.3158H6.8V16H2.125ZM3.4 14.3158H5.1V12.6316H10.2V14.3158H11.9L13.2175 9.97895L15.3 9.28421V6.31579H14.45L11.475 3.36842C11.475 3.08772 11.4927 2.81754 11.5281 2.55789C11.5635 2.29825 11.6167 2.03509 11.6875 1.76842C11.2767 1.8807 10.9154 2.07368 10.6038 2.34737C10.2921 2.62105 10.0654 2.9614 9.92375 3.36842H4.675C3.85333 3.36842 3.15208 3.65614 2.57125 4.23158C1.99042 4.80702 1.7 5.50175 1.7 6.31579C1.7 7.69123 1.89125 9.03509 2.27375 10.3474C2.65625 11.6596 3.03167 12.9825 3.4 14.3158Z" fill="white"/>
</svg>
