<svg width="20" height="21" viewBox="0 0 20 21" fill="none" xmlns="http://www.w3.org/2000/svg">
<path d="M14.2939 12.9536H13.3905L13.0703 12.6449C14.2297 11.3001 14.8669 9.58334 14.8656 7.80782C14.8656 6.33775 14.4297 4.90069 13.613 3.67837C12.7963 2.45605 11.6354 1.50337 10.2772 0.940793C8.91907 0.378221 7.42457 0.231026 5.98275 0.517823C4.54092 0.80462 3.21652 1.51253 2.17702 2.55202C1.13753 3.59152 0.42962 4.91592 0.142823 6.35775C-0.143974 7.79957 0.00322052 9.29407 0.565793 10.6522C1.12837 12.0104 2.08105 13.1713 3.30337 13.988C4.52569 14.8047 5.96275 15.2406 7.43282 15.2406C9.27387 15.2406 10.9663 14.566 12.2699 13.4453L12.5786 13.7655V14.6689L18.2962 20.375L20 18.6712L14.2939 12.9536ZM7.43282 12.9536C4.58548 12.9536 2.28702 10.6552 2.28702 7.80782C2.28702 4.96048 4.58548 2.66202 7.43282 2.66202C10.2802 2.66202 12.5786 4.96048 12.5786 7.80782C12.5786 10.6552 10.2802 12.9536 7.43282 12.9536Z" fill="#1458D3"/>
</svg>
