<svg width="25" height="25" viewBox="0 0 25 25" fill="none" xmlns="http://www.w3.org/2000/svg">
<path d="M17.4583 3.42857H21V20.5714C21 20.9503 20.8507 21.3137 20.5851 21.5816C20.3194 21.8495 19.9591 22 19.5833 22H5.41667C5.04094 22 4.68061 21.8495 4.41493 21.5816C4.14926 21.3137 4 20.9503 4 20.5714V3.42857H7.54167M15.3333 10.5714L9.66667 16.2857M8.25 2H16.75V4.85714C16.75 5.23602 16.6007 5.59939 16.3351 5.8673C16.0694 6.1352 15.7091 6.28571 15.3333 6.28571H9.66667C9.29094 6.28571 8.93061 6.1352 8.66493 5.8673C8.39926 5.59939 8.25 5.23602 8.25 4.85714V2ZM12.5 17.7143C11.9419 17.7143 11.3892 17.6034 10.8736 17.3881C10.358 17.1727 9.88945 16.857 9.4948 16.459C9.10015 16.0611 8.78709 15.5886 8.57351 15.0686C8.35993 14.5487 8.25 13.9914 8.25 13.4286C8.25 12.8658 8.35993 12.3085 8.57351 11.7885C8.78709 11.2685 9.10015 10.7961 9.4948 10.3981C9.88945 10.0001 10.358 9.68447 10.8736 9.46909C11.3892 9.25371 11.9419 9.14286 12.5 9.14286C13.6272 9.14286 14.7082 9.59439 15.5052 10.3981C16.3022 11.2018 16.75 12.2919 16.75 13.4286C16.75 14.5652 16.3022 15.6553 15.5052 16.459C14.7082 17.2628 13.6272 17.7143 12.5 17.7143Z" stroke="#1458D4" stroke-width="1.5"/>
</svg>
