<svg width="18" height="20" viewBox="0 0 18 20" fill="none" xmlns="http://www.w3.org/2000/svg">
<path d="M7.57895 15.2381C8.1 15.2381 8.54605 15.0516 8.91711 14.6786C9.28816 14.3056 9.47368 13.8571 9.47368 13.3333C9.47368 12.8095 9.28816 12.3611 8.91711 11.9881C8.54605 11.6151 8.1 11.4286 7.57895 11.4286C7.05789 11.4286 6.61184 11.6151 6.24079 11.9881C5.86974 12.3611 5.68421 12.8095 5.68421 13.3333C5.68421 13.8571 5.86974 14.3056 6.24079 14.6786C6.61184 15.0516 7.05789 15.2381 7.57895 15.2381ZM1.89474 20C1.37368 20 0.927632 19.8135 0.556579 19.4405C0.185526 19.0675 0 18.619 0 18.0952V8.57143C0 8.04762 0.185526 7.59921 0.556579 7.22619C0.927632 6.85317 1.37368 6.66667 1.89474 6.66667H8.52632V4.7619C8.52632 3.44444 8.98816 2.32143 9.91184 1.39286C10.8355 0.464286 11.9526 0 13.2632 0C14.5737 0 15.6908 0.464286 16.6145 1.39286C17.5382 2.32143 18 3.44444 18 4.7619H16.1053C16.1053 3.96825 15.8289 3.29365 15.2763 2.7381C14.7237 2.18254 14.0526 1.90476 13.2632 1.90476C12.4737 1.90476 11.8026 2.18254 11.25 2.7381C10.6974 3.29365 10.4211 3.96825 10.4211 4.7619V6.66667H13.2632C13.7842 6.66667 14.2303 6.85317 14.6013 7.22619C14.9724 7.59921 15.1579 8.04762 15.1579 8.57143V18.0952C15.1579 18.619 14.9724 19.0675 14.6013 19.4405C14.2303 19.8135 13.7842 20 13.2632 20H1.89474Z" fill="#B8B8B8"/>
</svg>
