<svg width="20" height="17" viewBox="0 0 20 17" fill="none" xmlns="http://www.w3.org/2000/svg">
    <path d="M9.75977 6.35971V16M9.75977 6.35971L13.0181 9.57314M9.75977 6.35971L6.50141 9.57314M15.7334 11.7154C17.3832 11.7154 18.4487 10.3968 18.4487 8.76978C18.4487 8.12561 18.2345 7.49922 17.839 6.98655C17.4436 6.47388 16.8886 6.10318 16.2591 5.93125C16.1623 4.72992 15.6574 3.59591 14.8262 2.71256C13.9949 1.82922 12.8859 1.24817 11.6784 1.06336C10.4709 0.878549 9.23546 1.10078 8.17186 1.69412C7.10825 2.28746 6.27865 3.21723 5.81716 4.3331C4.84554 4.06748 3.80673 4.1934 2.92925 4.68314C2.05176 5.17288 1.40749 5.98633 1.13816 6.94455C0.868823 7.90277 0.996493 8.92726 1.49308 9.79264C1.98967 10.658 2.8145 11.2934 3.78612 11.559" stroke="white" stroke-width="2" stroke-linecap="round" stroke-linejoin="round"/>
</svg>
