<svg width="18" height="16" viewBox="0 0 18 16" fill="none" xmlns="http://www.w3.org/2000/svg">
<path fill-rule="evenodd" clip-rule="evenodd" d="M8.2417 2.13673C8.66834 2.112 8.98315 1.82182 8.99541 1.416C9.00178 1.19932 9.00178 0.982503 8.99541 0.765818C8.98315 0.36 8.66834 0.0698182 8.24132 0.0450909C7.83574 0.0210909 7.22145 0 6.31915 0C5.41685 0 4.80255 0.0210909 4.3966 0.0450909C3.96996 0.0698182 3.65515 0.36 3.64289 0.765818C3.63652 0.982503 3.63652 1.19932 3.64289 1.416C3.65515 1.82182 3.96996 2.112 4.39698 2.13673L5.23953 2.16982C5.23953 2.16982 5.17021 5.00873 5.17021 8C5.17021 10.9913 5.23915 13.8302 5.23915 13.8302L4.3966 13.8629C3.96996 13.8884 3.65515 14.1782 3.64289 14.584C3.63652 14.8007 3.63652 15.0175 3.64289 15.2342C3.65515 15.64 3.96996 15.9298 4.39698 15.9549C4.80255 15.9789 5.41762 16 6.31915 16C7.22068 16 7.83575 15.9789 8.2417 15.9549C8.66834 15.9298 8.98315 15.64 8.99541 15.2342C9.00178 15.0175 9.00178 14.8007 8.99541 14.584C8.98315 14.1782 8.66834 13.8884 8.24132 13.8633L7.39877 13.8302C7.39877 13.8302 7.46809 10.9913 7.46809 8C7.46809 5.00873 7.39915 2.16982 7.39915 2.16982L8.2417 2.13673ZM9.37302 5.17418C9.27244 5.17404 9.17286 5.15509 9.07999 5.1184C8.98712 5.08172 8.90276 5.02803 8.83174 4.9604C8.76073 4.89276 8.70443 4.81251 8.66608 4.72422C8.62773 4.63592 8.60806 4.54133 8.60821 4.44582C8.60836 4.35031 8.62833 4.25577 8.66696 4.16759C8.70559 4.0794 8.76214 3.99931 8.83337 3.93188C8.9046 3.86445 8.98913 3.811 9.08211 3.77458C9.1751 3.73816 9.27473 3.71949 9.37532 3.71964C12.4254 3.724 14.4674 3.78073 15.6451 3.82764C16.7086 3.86982 17.6932 4.55564 17.8514 5.66218C17.9334 6.23455 18 7.00655 18 8.00036C18 8.99418 17.9334 9.76582 17.8514 10.3382C17.6932 11.4451 16.7086 12.1305 15.6454 12.1727C14.4674 12.22 12.4254 12.2767 9.37532 12.2807C9.27473 12.2809 9.1751 12.2622 9.08211 12.2258C8.98913 12.1894 8.9046 12.1359 8.83337 12.0685C8.76214 12.0011 8.70559 11.921 8.66696 11.8328C8.62833 11.7446 8.60836 11.6501 8.60821 11.5545C8.60806 11.459 8.62773 11.3644 8.66608 11.2761C8.70443 11.1879 8.76073 11.1076 8.83174 11.04C8.90276 10.9723 8.98712 10.9186 9.07999 10.882C9.17286 10.8453 9.27244 10.8263 9.37302 10.8262C12.4043 10.8222 14.4253 10.7658 15.5811 10.7196C16.0177 10.7022 16.2896 10.4484 16.3333 10.1429C16.4053 9.63855 16.4681 8.932 16.4681 8C16.4681 7.068 16.4053 6.36182 16.3333 5.85745C16.2896 5.552 16.0173 5.29818 15.5807 5.28073C14.4253 5.23455 12.4043 5.17855 9.37302 5.17418ZM3.36179 3.792C3.46235 3.78899 3.56255 3.80482 3.65667 3.83858C3.75079 3.87234 3.83698 3.92337 3.91033 3.98876C3.98368 4.05415 4.04275 4.13262 4.08416 4.21968C4.12557 4.30674 4.14851 4.4007 4.15168 4.49618C4.15485 4.59166 4.13818 4.68681 4.10262 4.77617C4.06707 4.86554 4.01332 4.94738 3.94445 5.01702C3.87559 5.08667 3.79295 5.14275 3.70125 5.18207C3.60956 5.22139 3.5106 5.24317 3.41004 5.24618C3.02911 5.25758 2.69936 5.26897 2.42081 5.28036C1.98306 5.29782 1.71 5.55236 1.66634 5.85745C1.59511 6.36182 1.53191 7.06873 1.53191 8C1.53191 8.932 1.59472 9.63855 1.66672 10.1425C1.71 10.4476 1.98306 10.7025 2.42081 10.7196C2.69911 10.7308 3.02885 10.7422 3.41004 10.7538C3.51076 10.7566 3.60992 10.7782 3.70184 10.8174C3.79376 10.8566 3.87663 10.9126 3.9457 10.9823C4.01477 11.0519 4.06869 11.1338 4.10436 11.2233C4.14003 11.3128 4.15676 11.4081 4.15359 11.5037C4.15041 11.5993 4.1274 11.6934 4.08586 11.7806C4.04433 11.8678 3.98508 11.9463 3.91153 12.0117C3.83798 12.0771 3.75156 12.128 3.65722 12.1617C3.56289 12.1953 3.46249 12.2109 3.36179 12.2076C2.97549 12.196 2.64038 12.1845 2.35647 12.1731C1.29409 12.1305 0.306766 11.4458 0.148596 10.3382C0.0670213 9.76582 0 8.99382 0 8C0 7.00618 0.0670213 6.23455 0.148596 5.66218C0.306766 4.55455 1.29409 3.86945 2.35647 3.82727C2.64038 3.81612 2.97549 3.80461 3.36179 3.79273" fill="#646464"/>
</svg>
